<svg xmlns="http://www.w3.org/2000/svg" width="95" height="33" viewBox="0 0 95 33">
    <g fill="none" fill-rule="evenodd">
        <path fill="#000" d="M9.368 12H7.8V6.96H2.008V12H.44V.656h1.568v4.848H7.8V.656h1.568V12zm10.016-1.104c.672 0 1.24-.243 1.704-.728.464-.485.696-1.16.696-2.024 0-.853-.232-1.523-.696-2.008a2.267 2.267 0 0 0-1.704-.728c-.672 0-1.24.243-1.704.728-.464.485-.696 1.155-.696 2.008 0 .864.232 1.539.696 2.024a2.267 2.267 0 0 0 1.704.728zm0-6.832c1.141 0 2.083.387 2.824 1.16.741.773 1.112 1.747 1.112 2.92 0 1.184-.368 2.163-1.104 2.936-.736.773-1.68 1.16-2.832 1.16s-2.096-.387-2.832-1.16c-.736-.773-1.104-1.752-1.104-2.936 0-1.173.37-2.147 1.112-2.92.741-.773 1.683-1.16 2.824-1.16zm14.848 7.008a1.968 1.968 0 0 1-.928.872 3.096 3.096 0 0 1-1.344.296c-.875 0-1.573-.29-2.096-.872-.523-.581-.784-1.32-.784-2.216V4.304h1.504v4.624c0 .576.141 1.05.424 1.424.283.373.723.56 1.32.56.597 0 1.05-.179 1.36-.536.31-.357.464-.835.464-1.432v-4.64h1.504v6.272c0 .501.027.976.08 1.424h-1.44a5.393 5.393 0 0 1-.064-.928zM41.496 10l1.36-.48a1.6 1.6 0 0 0 .544 1.032c.31.272.725.408 1.248.408.405 0 .725-.099.96-.296a.916.916 0 0 0 .352-.728c0-.512-.33-.843-.992-.992l-1.312-.288c-.597-.128-1.067-.384-1.408-.768-.341-.384-.512-.848-.512-1.392 0-.661.27-1.232.808-1.712.539-.48 1.181-.72 1.928-.72.49 0 .928.072 1.312.216.384.144.683.333.896.568.213.235.373.453.48.656.107.203.187.41.24.624l-1.328.496a1.6 1.6 0 0 0-.112-.376 2.087 2.087 0 0 0-.248-.408 1.158 1.158 0 0 0-.488-.36 1.912 1.912 0 0 0-.752-.136c-.373 0-.68.101-.92.304-.24.203-.36.443-.36.72 0 .49.293.8.88.928l1.248.272c.683.15 1.208.424 1.576.824.368.4.552.888.552 1.464 0 .608-.248 1.157-.744 1.648-.496.49-1.187.736-2.072.736-.95 0-1.69-.237-2.224-.712-.533-.475-.837-.984-.912-1.528zm12.848-2.64h4.208c-.021-.576-.213-1.048-.576-1.416-.363-.368-.875-.552-1.536-.552-.597 0-1.088.195-1.472.584-.384.39-.592.85-.624 1.384zm4.432 2l1.296.448a3.408 3.408 0 0 1-1.248 1.752c-.608.453-1.344.68-2.208.68-1.077 0-1.992-.37-2.744-1.112-.752-.741-1.128-1.741-1.128-3 0-1.173.363-2.144 1.088-2.912.725-.768 1.59-1.152 2.592-1.152 1.163 0 2.07.365 2.72 1.096.65.73.976 1.71.976 2.936 0 .192-.01.352-.032.48h-5.792c.01.683.237 1.243.68 1.68.443.437.99.656 1.64.656 1.099 0 1.819-.517 2.16-1.552zM67.544 12H66.04V.416h1.504V12zm6.08-2.064c0-.661.213-1.192.64-1.592.427-.4.992-.648 1.696-.744l2.08-.304c.395-.053.592-.245.592-.576 0-.405-.139-.736-.416-.992-.277-.256-.693-.384-1.248-.384-.512 0-.917.141-1.216.424-.299.283-.475.659-.528 1.128l-1.44-.336c.075-.736.41-1.336 1.008-1.8.597-.464 1.312-.696 2.144-.696 1.088 0 1.893.264 2.416.792.523.528.784 1.203.784 2.024v3.856c0 .459.032.88.096 1.264H78.76a6.336 6.336 0 0 1-.08-1.04c-.213.341-.525.64-.936.896-.41.256-.925.384-1.544.384-.757 0-1.376-.227-1.856-.68-.48-.453-.72-.995-.72-1.624zm2.784 1.04c.672 0 1.21-.181 1.616-.544.405-.363.608-.939.608-1.728v-.352l-2.352.352c-.341.053-.613.176-.816.368-.203.192-.304.453-.304.784 0 .299.115.56.344.784.23.224.53.336.904.336zM87.96 12h-1.488V.416h1.488v4.976c.203-.373.525-.685.968-.936.443-.25.968-.376 1.576-.376 1.12 0 1.99.379 2.608 1.136.619.757.928 1.723.928 2.896 0 1.184-.32 2.163-.96 2.936-.64.773-1.515 1.16-2.624 1.16-1.152 0-1.984-.443-2.496-1.328V12zm4.544-3.888c0-.832-.205-1.49-.616-1.976-.41-.485-.963-.728-1.656-.728-.672 0-1.221.245-1.648.736-.427.49-.64 1.147-.64 1.968s.213 1.485.64 1.992c.427.507.976.76 1.648.76.683 0 1.232-.25 1.648-.752.416-.501.624-1.168.624-2z"/>
        <path stroke="#FD7800" stroke-linecap="square" stroke-width="2" d="M1.5 31.5h47"/>
    </g>
</svg>
