<svg xmlns="http://www.w3.org/2000/svg" width="121" height="33" viewBox="0 0 121 33">
    <g fill="none" fill-rule="evenodd">
        <path fill="#000" d="M7.368 12H.44V.656h1.568v9.872h5.36V12zm8.896-1.104c.672 0 1.24-.243 1.704-.728.464-.485.696-1.16.696-2.024 0-.853-.232-1.523-.696-2.008a2.267 2.267 0 0 0-1.704-.728c-.672 0-1.24.243-1.704.728-.464.485-.696 1.155-.696 2.008 0 .864.232 1.539.696 2.024a2.267 2.267 0 0 0 1.704.728zm0-6.832c1.141 0 2.083.387 2.824 1.16.741.773 1.112 1.747 1.112 2.92 0 1.184-.368 2.163-1.104 2.936-.736.773-1.68 1.16-2.832 1.16s-2.096-.387-2.832-1.16c-.736-.773-1.104-1.752-1.104-2.936 0-1.173.37-2.147 1.112-2.92.741-.773 1.683-1.16 2.824-1.16zm11.36 3.488V12H26.12V4.304h1.472v1.104c.512-.885 1.301-1.328 2.368-1.328.885 0 1.565.283 2.04.848.475.565.712 1.296.712 2.192V12h-1.504V7.376c0-1.29-.597-1.936-1.792-1.936-.565 0-1.005.2-1.32.6-.315.4-.472.904-.472 1.512zm12.384.576c0 .81.2 1.472.6 1.984.4.512.952.768 1.656.768.672 0 1.21-.261 1.616-.784.405-.523.608-1.19.608-2 0-.8-.197-1.445-.592-1.936-.395-.49-.933-.736-1.616-.736s-1.232.25-1.648.752c-.416.501-.624 1.152-.624 1.952zm4.496 2.832v-.128c-.203.395-.51.723-.92.984-.41.261-.899.392-1.464.392-1.099 0-1.981-.387-2.648-1.16-.667-.773-1-1.747-1-2.92 0-1.12.341-2.072 1.024-2.856.683-.784 1.557-1.176 2.624-1.176.63 0 1.141.125 1.536.376.395.25.667.557.816.92V.416h1.488v10.16c0 .523.027.997.08 1.424h-1.456a5.976 5.976 0 0 1-.08-1.04zm11.312-.064c.672 0 1.24-.243 1.704-.728.464-.485.696-1.16.696-2.024 0-.853-.232-1.523-.696-2.008a2.267 2.267 0 0 0-1.704-.728c-.672 0-1.24.243-1.704.728-.464.485-.696 1.155-.696 2.008 0 .864.232 1.539.696 2.024a2.267 2.267 0 0 0 1.704.728zm0-6.832c1.141 0 2.083.387 2.824 1.16.741.773 1.112 1.747 1.112 2.92 0 1.184-.368 2.163-1.104 2.936-.736.773-1.68 1.16-2.832 1.16s-2.096-.387-2.832-1.16c-.736-.773-1.104-1.752-1.104-2.936 0-1.173.37-2.147 1.112-2.92.741-.773 1.683-1.16 2.824-1.16zm11.36 3.488V12h-1.504V4.304h1.472v1.104c.512-.885 1.301-1.328 2.368-1.328.885 0 1.565.283 2.04.848.475.565.712 1.296.712 2.192V12H70.76V7.376c0-1.29-.597-1.936-1.792-1.936-.565 0-1.005.2-1.32.6-.315.4-.472.904-.472 1.512zM92.696 12l-2.592-4.64h-1.696V12h-1.584V.656h4.272c1.045 0 1.885.323 2.52.968s.952 1.448.952 2.408c0 .821-.245 1.523-.736 2.104-.49.581-1.163.952-2.016 1.112L94.52 12h-1.824zm-4.288-6.048h2.4c.64 0 1.157-.173 1.552-.52.395-.347.592-.813.592-1.4 0-.597-.197-1.075-.592-1.432-.395-.357-.912-.536-1.552-.536h-2.4v3.888zm11.6 3.984c0-.661.213-1.192.64-1.592.427-.4.992-.648 1.696-.744l2.08-.304c.395-.053.592-.245.592-.576 0-.405-.139-.736-.416-.992-.277-.256-.693-.384-1.248-.384-.512 0-.917.141-1.216.424-.299.283-.475.659-.528 1.128l-1.44-.336c.075-.736.41-1.336 1.008-1.8.597-.464 1.312-.696 2.144-.696 1.088 0 1.893.264 2.416.792.523.528.784 1.203.784 2.024v3.856c0 .459.032.88.096 1.264h-1.472a6.336 6.336 0 0 1-.08-1.04c-.213.341-.525.64-.936.896-.41.256-.925.384-1.544.384-.757 0-1.376-.227-1.856-.68-.48-.453-.72-.995-.72-1.624zm2.784 1.04c.672 0 1.21-.181 1.616-.544.405-.363.608-.939.608-1.728v-.352l-2.352.352c-.341.053-.613.176-.816.368-.203.192-.304.453-.304.784 0 .299.115.56.344.784.23.224.53.336.904.336zm9.504 1.44l1.456-.336c.053.544.272.995.656 1.352.384.357.864.536 1.44.536 1.568 0 2.352-.832 2.352-2.496v-1.104c-.192.373-.493.677-.904.912-.41.235-.893.352-1.448.352-1.024 0-1.87-.35-2.536-1.048-.667-.699-1-1.592-1-2.68 0-1.056.33-1.944.992-2.664.661-.72 1.51-1.08 2.544-1.08 1.173 0 1.963.405 2.368 1.216V4.304h1.488v7.12c0 .512-.067.99-.2 1.432a3.77 3.77 0 0 1-.632 1.224c-.288.373-.69.667-1.208.88-.517.213-1.123.32-1.816.32-.95 0-1.755-.27-2.416-.808-.661-.539-1.04-1.224-1.136-2.056zm3.776-2.048c.65 0 1.179-.227 1.584-.68.405-.453.608-1.048.608-1.784s-.203-1.33-.608-1.784c-.405-.453-.933-.68-1.584-.68-.661 0-1.197.224-1.608.672-.41.448-.616 1.045-.616 1.792 0 .757.2 1.357.6 1.8.4.443.941.664 1.624.664z"/>
        <path stroke="#37AB91" stroke-linecap="square" stroke-width="2" d="M1.5 31.5h47"/>
    </g>
</svg>
